<svg xmlns="http://www.w3.org/2000/svg" version="1.1" xmlns:xlink="http://www.w3.org/1999/xlink" xmlns:svgjs="http://svgjs.dev/svgjs" width="1000" height="381" viewBox="0 0 1000 381"><g transform="matrix(1,0,0,1,-0.6060606060606233,-0.25996763990357863)"><svg viewBox="0 0 396 151" data-background-color="#1f2d5a" preserveAspectRatio="xMidYMid meet" height="381" width="1000" xmlns="http://www.w3.org/2000/svg" xmlns:xlink="http://www.w3.org/1999/xlink"><g id="tight-bounds" transform="matrix(1,0,0,1,0.2400000000000091,0.10303179429249099)"><svg viewBox="0 0 395.52 150.79393641141502" height="150.79393641141502" width="395.52"><g><svg viewBox="0 0 397.4975999999999 151.54790609347208" height="150.79393641141502" width="395.52"><g><svg viewBox="0 0 397.4975999999999 151.54790609347208" height="151.54790609347208" width="397.4975999999999"><g id="textblocktransform"><svg viewBox="0 0 397.4975999999999 151.54790609347208" height="151.54790609347208" width="397.4975999999999" id="textblock"><g><rect width="397.4975999999999" height="7.176740800128772" x="0" y="88.03576474527162" fill="#ffffff" opacity="1" stroke-width="0" stroke="transparent" fill-opacity="1" class="rect-qz-0" data-fill-palette-color="primary" rx="1%" id="qz-0" data-palette-color="#fbfbfb"></rect></g><g transform="matrix(1,0,0,1,0.9887999999999693,0)"><svg viewBox="0 0 395.52 79.5814889336016" height="79.5814889336016" width="395.52"><g transform="matrix(1,0,0,1,0,0)"><svg width="395.52" viewBox="3.75 -37.5 248.48 50" height="79.5814889336016" data-palette-color="#fbfbfb"><path d="M6.9 0L3.75 0 3.75-35 6.9-35 6.9-18.85 23.9-18.85 23.9-35 27.05-35 27.05 0 23.9 0 23.9-15.85 6.9-15.85 6.9 0ZM38.5-3.2L38.5-3.2Q39.6-2.8 42-2.8 44.4-2.8 48.2-4.75L48.2-4.75 48.2-25 51.45-25.25 51.45 0 48.2 0 48.2-2.7Q44.5 0.15 40.65 0.15L40.65 0.15Q35.85 0.15 33.7-2.7L33.7-2.7Q32.6-4.1 32.6-6.6L32.6-6.6 32.6-25 35.85-25.25 35.85-7.45Q35.85-4.35 38.5-3.2ZM65.85 0L56.95-25 60.6-25.25 68.05-2.35 77.65-25 81.15-25 64.55 12.5 61.5 12.5 67 0 65.85 0ZM87.99-25.25L87.99-22.25Q91.74-25 95.09-25.15L95.09-25.15Q98.14-25.15 99.79-24.4 101.44-23.65 102.52-22.28 103.59-20.9 103.59-18.4L103.59-18.4 103.59 0 100.34 0 100.34-17.55Q100.34-19.4 99.54-20.4L99.54-20.4Q97.94-22.25 94.64-22.25L94.64-22.25Q91.49-22.1 87.99-20.2L87.99-20.2 87.99 0 84.74 0 84.74-25 87.99-25.25ZM113.84-37.5L113.84-22.15Q117.79-25 121.44-25.15L121.44-25.15Q124.54-25.15 126.19-24.4 127.84-23.65 128.89-22.28 129.94-20.9 129.94-18.4L129.94-18.4 129.94 0 126.69 0 126.69-17.55Q126.69-19.4 125.89-20.4L125.89-20.4Q124.29-22.25 120.99-22.25L120.99-22.25Q117.74-22.1 113.84-20.15L113.84-20.15 113.84 0 110.59 0 110.59-37.25 113.84-37.5ZM153.78 0L150.63 0 150.63-35 153.78-35 153.78-18.85 170.78-18.85 170.78-35 173.94-35 173.94 0 170.78 0 170.78-15.85 153.78-15.85 153.78 0ZM185.38-3.2L185.38-3.2Q186.48-2.8 188.88-2.8 191.28-2.8 195.08-4.75L195.08-4.75 195.08-25 198.33-25.25 198.33 0 195.08 0 195.08-2.7Q191.38 0.15 187.53 0.15L187.53 0.15Q182.73 0.15 180.58-2.7L180.58-2.7Q179.48-4.1 179.48-6.6L179.48-6.6 179.48-25 182.73-25.25 182.73-7.45Q182.73-4.35 185.38-3.2ZM208.08-25.25L208.08-22.25Q211.83-25 215.18-25.15L215.18-25.15Q218.23-25.15 219.88-24.4 221.53-23.65 222.61-22.28 223.68-20.9 223.68-18.4L223.68-18.4 223.68 0 220.43 0 220.43-17.55Q220.43-19.4 219.63-20.4L219.63-20.4Q218.03-22.25 214.73-22.25L214.73-22.25Q211.58-22.1 208.08-20.2L208.08-20.2 208.08 0 204.83 0 204.83-25 208.08-25.25ZM233.28-9.65L233.28-9.65Q229.58-11.5 229.58-16.6L229.58-16.6Q229.58-20.8 232.48-23 235.38-25.2 239.88-25.2L239.88-25.2Q241.08-25.2 242.83-24.95L242.83-24.95 252.23-25.2 252.13-23.3 246.68-23.3Q249.43-21.25 249.43-17.13 249.43-13 246.68-10.78 243.93-8.55 239.58-8.55L239.58-8.55Q236.78-8.55 234.93-9.05L234.93-9.05Q233.98-8.15 233.98-6.95L233.98-6.95Q233.98-5.25 235.85-4.5 237.73-3.75 240.28-3.4L240.28-3.4Q245.93-2.65 248.43-1.3L248.43-1.3Q252.03 0.7 252.03 4.85 252.03 9 248.08 11L248.08 11Q245.08 12.5 240.83 12.5 236.58 12.5 234.28 11.85L234.28 11.85Q228.23 10.1 228.23 5.35 228.23 0.6 233.58-2.7L233.58-2.7Q231.48-4.25 231.48-6.3 231.48-8.35 233.28-9.65ZM248.78 4.8L248.78 4.8Q248.78 1.55 244.48 0.3L244.48 0.3Q243.28-0.05 240.18-0.55 237.08-1.05 235.33-1.75L235.33-1.75Q231.48 1.45 231.48 4.45L231.48 4.45Q231.48 5.75 231.88 6.6 232.28 7.45 233.28 8.1L233.28 8.1Q235.48 9.6 239.98 9.6L239.98 9.6Q245.88 9.6 247.98 7.1L247.98 7.1Q248.78 6.15 248.78 4.8ZM246.03-17.25L246.03-17.25Q246.03-22.55 239.73-22.55L239.73-22.55Q236.73-22.55 234.78-21.18 232.83-19.8 232.83-16.98 232.83-14.15 234.23-12.68 235.63-11.2 238.95-11.2 242.28-11.2 244.15-12.8 246.03-14.4 246.03-17.25Z" opacity="1" transform="matrix(1,0,0,1,0,0)" fill="#ffffff" class="wordmark-text-0" data-fill-palette-color="primary" id="text-0"></path></svg></g></svg></g><g transform="matrix(1,0,0,1,0,103.6667813570704)"><svg viewBox="0 0 232.209792 47.881124736401674" height="47.881124736401674" width="232.209792"><g transform="matrix(1,0,0,1,0,0)"><svg width="232.209792" viewBox="4.13 -38.01 186.69 38.5" height="47.881124736401674" data-palette-color="#fbfbfb"><path d="M17.26-13.94L7.79-13.94 7.79-17.75 17.26-17.75Q20.02-17.75 21.72-18.64 23.41-19.53 24.21-21.09 25-22.66 25-24.66L25-24.66Q25-26.49 24.21-28.1 23.41-29.71 21.72-30.71 20.02-31.71 17.26-31.71L17.26-31.71 8.86-31.71 8.86 0 4.13 0 4.13-35.55 17.26-35.55Q21.29-35.55 24.07-34.16 26.86-32.76 28.3-30.32 29.74-27.88 29.74-24.71L29.74-24.71Q29.74-21.29 28.3-18.87 26.86-16.46 24.07-15.2 21.29-13.94 17.26-13.94L17.26-13.94ZM33.49-12.92L33.49-13.48Q33.49-17.31 34.96-20.34 36.42-23.36 39.11-25.13 41.79-26.9 45.48-26.9L45.48-26.9Q49.22-26.9 51.93-25.13 54.64-23.36 56.09-20.34 57.54-17.31 57.54-13.48L57.54-13.48 57.54-12.92Q57.54-9.11 56.09-6.07 54.64-3.03 51.94-1.27 49.24 0.49 45.53 0.49L45.53 0.49Q41.82 0.49 39.12-1.27 36.42-3.03 34.96-6.07 33.49-9.11 33.49-12.92L33.49-12.92ZM38.06-13.48L38.06-12.92Q38.06-10.3 38.89-8.08 39.72-5.86 41.37-4.52 43.02-3.17 45.53-3.17L45.53-3.17Q48.02-3.17 49.67-4.52 51.32-5.86 52.15-8.08 52.98-10.3 52.98-12.92L52.98-12.92 52.98-13.48Q52.98-16.09 52.15-18.31 51.32-20.53 49.66-21.89 48-23.24 45.48-23.24L45.48-23.24Q43.02-23.24 41.35-21.89 39.69-20.53 38.88-18.31 38.06-16.09 38.06-13.48L38.06-13.48ZM67.77-22.27L67.77 0 63.2 0 63.2-26.42 67.65-26.42 67.77-22.27ZM76-26.56L76-22.39Q75.41-22.51 74.91-22.55 74.41-22.58 73.77-22.58L73.77-22.58Q71.7-22.58 70.27-21.73 68.84-20.87 68.06-19.37 67.28-17.87 67.08-15.94L67.08-15.94 65.79-15.21Q65.79-18.41 66.65-21.06 67.5-23.71 69.32-25.31 71.14-26.9 73.99-26.9L73.99-26.9Q74.46-26.9 75.1-26.79 75.75-26.68 76-26.56L76-26.56ZM92.47-26.42L92.47-22.97 78.17-22.97 78.17-26.42 92.47-26.42ZM82.98-32.84L87.54-32.84 87.54-6.54Q87.54-5.18 87.96-4.49 88.37-3.81 89.03-3.59 89.69-3.37 90.45-3.37L90.45-3.37Q91.01-3.37 91.63-3.47 92.25-3.56 92.55-3.64L92.55-3.64 92.57 0Q92.03 0.17 91.17 0.33 90.3 0.49 89.08 0.49L89.08 0.49Q87.42 0.49 86.03-0.17 84.64-0.83 83.81-2.38 82.98-3.93 82.98-6.57L82.98-6.57 82.98-32.84ZM104.51 0L99.94 0 99.94-29.22Q99.94-33.47 102.27-35.74 104.6-38.01 108.66-38.01L108.66-38.01Q109.44-38.01 110.22-37.92 111-37.82 111.76-37.62L111.76-37.62 111.51-33.98Q111-34.08 110.35-34.13 109.71-34.18 109.07-34.18L109.07-34.18Q106.92-34.18 105.72-32.9 104.51-31.62 104.51-29.22L104.51-29.22 104.51 0ZM110.12-26.42L110.12-22.97 95.79-22.97 95.79-26.42 110.12-26.42ZM113.93-12.92L113.93-13.48Q113.93-17.31 115.39-20.34 116.86-23.36 119.54-25.13 122.23-26.9 125.92-26.9L125.92-26.9Q129.65-26.9 132.36-25.13 135.07-23.36 136.52-20.34 137.98-17.31 137.98-13.48L137.98-13.48 137.98-12.92Q137.98-9.11 136.52-6.07 135.07-3.03 132.37-1.27 129.68 0.49 125.96 0.49L125.96 0.49Q122.25 0.49 119.56-1.27 116.86-3.03 115.39-6.07 113.93-9.11 113.93-12.92L113.93-12.92ZM118.49-13.48L118.49-12.92Q118.49-10.3 119.32-8.08 120.15-5.86 121.8-4.52 123.45-3.17 125.96-3.17L125.96-3.17Q128.45-3.17 130.1-4.52 131.75-5.86 132.58-8.08 133.41-10.3 133.41-12.92L133.41-12.92 133.41-13.48Q133.41-16.09 132.58-18.31 131.75-20.53 130.09-21.89 128.43-23.24 125.92-23.24L125.92-23.24Q123.45-23.24 121.79-21.89 120.13-20.53 119.31-18.31 118.49-16.09 118.49-13.48L118.49-13.48ZM148.59-37.5L148.59 0 144.03 0 144.03-37.5 148.59-37.5ZM160.75-26.42L160.75 0 156.18 0 156.18-26.42 160.75-26.42ZM155.84-33.45L155.84-33.45Q155.84-34.52 156.51-35.28 157.18-36.04 158.5-36.04L158.5-36.04Q159.82-36.04 160.52-35.28 161.21-34.52 161.21-33.45L161.21-33.45Q161.21-32.4 160.52-31.65 159.82-30.91 158.5-30.91L158.5-30.91Q157.18-30.91 156.51-31.65 155.84-32.4 155.84-33.45ZM166.78-12.92L166.78-13.48Q166.78-17.31 168.24-20.34 169.71-23.36 172.39-25.13 175.08-26.9 178.76-26.9L178.76-26.9Q182.5-26.9 185.21-25.13 187.92-23.36 189.37-20.34 190.82-17.31 190.82-13.48L190.82-13.48 190.82-12.92Q190.82-9.11 189.37-6.07 187.92-3.03 185.22-1.27 182.52 0.49 178.81 0.49L178.81 0.49Q175.1 0.49 172.4-1.27 169.71-3.03 168.24-6.07 166.78-9.11 166.78-12.92L166.78-12.92ZM171.34-13.48L171.34-12.92Q171.34-10.3 172.17-8.08 173-5.86 174.65-4.52 176.3-3.17 178.81-3.17L178.81-3.17Q181.3-3.17 182.95-4.52 184.6-5.86 185.43-8.08 186.26-10.3 186.26-12.92L186.26-12.92 186.26-13.48Q186.26-16.09 185.43-18.31 184.6-20.53 182.94-21.89 181.28-23.24 178.76-23.24L178.76-23.24Q176.3-23.24 174.64-21.89 172.98-20.53 172.16-18.31 171.34-16.09 171.34-13.48L171.34-13.48Z" opacity="1" transform="matrix(1,0,0,1,0,0)" fill="#ffffff" class="slogan-text-1" data-fill-palette-color="secondary" id="text-1"></path></svg></g></svg></g></svg></g></svg></g></svg></g><defs></defs></svg><rect width="395.52" height="150.79393641141502" fill="none" stroke="none" visibility="hidden"></rect></g></svg></g></svg>